<?xml version="1.0" standalone="no"?>
<!DOCTYPE svg PUBLIC "-//W3C//DTD SVG 20010904//EN"
 "http://www.w3.org/TR/2001/REC-SVG-20010904/DTD/svg10.dtd">
<svg version="1.0" xmlns="http://www.w3.org/2000/svg"
 width="2570.000000pt" height="2570.000000pt" viewBox="0 0 2570.000000 2570.000000"
 preserveAspectRatio="xMidYMid meet">
<metadata>
Created by potrace 1.14, written by Peter Selinger 2001-2017
</metadata>
<g transform="translate(0.000000,2570.000000) scale(0.100000,-0.100000)"
fill="#000000" stroke="none">
<path d="M22135 21284 c-613 -63 -1159 -198 -1770 -439 -905 -357 -1769 -879
-2615 -1579 -592 -490 -1232 -1147 -1706 -1751 -263 -335 -561 -766 -759
-1098 -83 -139 -103 -167 -120 -163 -11 2 -97 24 -191 50 -392 106 -817 180
-1264 221 -229 22 -828 30 -1065 16 -489 -29 -998 -111 -1473 -237 -96 -26
-177 -42 -182 -38 -4 5 -49 70 -100 144 -773 1125 -1866 2162 -3076 2917 -357
224 -809 467 -1169 628 -1842 828 -3636 908 -4825 215 -725 -422 -1200 -1122
-1349 -1990 -32 -187 -43 -348 -44 -640 0 -300 12 -441 63 -748 163 -965 643
-2026 1361 -3004 1071 -1459 2613 -2687 4254 -3388 138 -59 180 -82 182 -96 1
-11 6 -44 11 -74 6 -30 13 -113 17 -185 56 -1151 502 -2321 1251 -3276 1186
-1513 3033 -2455 5059 -2580 240 -15 886 -6 1115 16 1958 182 3697 1102 4847
2565 579 737 988 1630 1157 2530 63 338 96 659 96 946 l0 174 161 80 c1212
607 2376 1533 3349 2665 366 427 753 959 1042 1435 495 816 848 1664 1027
2469 144 646 173 1284 85 1826 -140 863 -573 1542 -1247 1959 -322 199 -686
329 -1132 402 -152 25 -181 27 -555 29 -217 2 -413 1 -435 -1z m880 -138 c569
-81 1007 -251 1380 -538 816 -625 1166 -1692 990 -3018 -183 -1384 -940 -2939
-2090 -4295 -218 -257 -376 -428 -654 -706 -749 -748 -1531 -1342 -2393 -1817
-195 -108 -469 -245 -476 -238 -3 3 -11 110 -18 238 -14 243 -22 313 -55 513
-150 907 -529 1791 -1091 2541 -399 534 -901 1024 -1441 1407 -539 383 -1169
708 -1727 892 -80 26 -147 49 -149 51 -6 5 194 331 337 548 426 642 843 1149
1431 1736 368 368 662 631 1003 898 944 739 1963 1286 2928 1572 387 114 756
189 1080 219 63 6 131 13 150 15 91 10 690 -3 795 -18z m-18890 -647 c1079
-71 2315 -491 3450 -1172 1289 -774 2419 -1829 3228 -3013 l97 -142 -252 -85
c-683 -230 -1384 -605 -1948 -1044 -576 -447 -1052 -956 -1435 -1533 -344
-518 -619 -1117 -770 -1680 -117 -433 -166 -725 -187 -1121 -6 -126 -15 -234
-18 -239 -13 -21 -516 207 -835 378 -1283 686 -2422 1636 -3311 2762 -590 747
-1053 1580 -1317 2370 -107 320 -175 590 -222 885 -45 285 -50 357 -50 700 1
352 8 441 61 698 205 1013 881 1754 1889 2071 485 153 1003 206 1620 165z
m9530 -4088 c475 -46 805 -101 1210 -202 88 -22 181 -47 207 -55 l46 -15 -84
-162 c-433 -827 -691 -1549 -819 -2297 -56 -330 -77 -573 -76 -905 0 -455 54
-833 173 -1204 271 -851 884 -1482 1708 -1760 363 -123 691 -174 1125 -174
329 -1 598 25 930 89 478 92 1071 287 1504 495 l144 69 -6 -187 c-13 -374 -83
-828 -188 -1208 -270 -980 -790 -1864 -1534 -2610 -520 -521 -1082 -923 -1760
-1260 -832 -412 -1724 -649 -2683 -715 -198 -13 -756 -13 -954 0 -1712 117
-3276 810 -4433 1965 -868 868 -1437 1933 -1650 3090 -44 239 -85 604 -85 762
l0 72 98 -40 c502 -205 1092 -373 1597 -453 794 -126 1498 -88 2121 115 672
218 1212 646 1543 1221 235 409 362 870 391 1415 17 324 -10 674 -86 1138
-126 768 -433 1563 -911 2359 -62 104 -110 193 -106 197 12 11 306 85 488 124
317 66 703 121 1025 144 159 12 920 6 1065 -8z m2145 -551 c628 -268 1188
-610 1711 -1046 186 -155 614 -580 763 -759 214 -257 409 -531 581 -815 109
-182 315 -598 394 -795 174 -439 299 -912 356 -1345 14 -108 44 -557 45 -662
l0 -48 -91 -45 c-49 -25 -161 -75 -247 -111 -557 -233 -1059 -371 -1617 -446
-151 -20 -211 -23 -535 -23 -297 0 -388 4 -490 18 -659 95 -1159 325 -1569
722 -457 444 -724 1020 -818 1770 -22 177 -25 761 -5 955 56 533 180 1063 378
1613 46 128 134 325 296 667 127 267 239 502 249 522 l19 37 217 -73 c120 -41
283 -102 363 -136z m-4673 -203 c128 -211 262 -446 299 -523 329 -691 520
-1307 606 -1948 25 -194 36 -687 19 -872 -97 -1029 -605 -1803 -1456 -2219
-330 -162 -631 -250 -1039 -306 -193 -27 -711 -37 -933 -20 -632 51 -1295 207
-1933 455 -227 89 -280 115 -280 140 0 89 33 576 46 676 42 327 124 678 239
1026 97 293 155 433 290 709 179 365 348 641 580 950 687 915 1589 1613 2710
2096 89 38 584 215 610 218 6 0 115 -172 242 -382z"/>
<path d="M21290 18320 c-300 -63 -554 -284 -659 -570 -47 -130 -55 -180 -55
-335 1 -174 18 -256 84 -394 52 -109 111 -190 196 -272 86 -81 143 -120 247
-169 134 -62 191 -74 362 -74 171 0 228 12 362 74 111 52 175 96 257 177 117
115 198 255 248 430 20 67 23 100 22 238 0 144 -3 169 -27 248 -52 171 -134
304 -260 423 -208 198 -502 283 -777 224z"/>
<path d="M3940 18320 c-300 -63 -554 -284 -659 -570 -47 -130 -55 -180 -55
-335 1 -174 18 -256 84 -394 52 -109 111 -190 196 -272 86 -81 143 -120 247
-169 134 -62 191 -74 362 -74 171 0 228 12 362 74 111 52 175 96 257 177 117
115 198 255 248 430 20 67 23 100 22 238 0 144 -3 169 -27 248 -52 171 -134
304 -260 423 -208 198 -502 283 -777 224z"/>
<path d="M12825 8496 c-379 -74 -656 -356 -729 -745 -53 -281 38 -589 238
-798 118 -125 238 -199 403 -250 78 -23 105 -27 233 -27 174 -1 238 13 387 85
233 112 414 334 485 594 31 114 31 354 0 467 -89 326 -333 574 -648 658 -102
27 -274 35 -369 16z"/>
<path d="M16540 13484 c-155 -29 -263 -69 -369 -137 -217 -141 -360 -361 -406
-624 -50 -284 41 -582 239 -790 118 -125 238 -199 403 -250 78 -23 105 -27
233 -27 174 -1 238 13 387 85 237 114 412 329 485 594 31 114 31 355 0 467
-91 332 -336 576 -667 663 -59 16 -256 28 -305 19z"/>
<path d="M9580 13484 c-155 -29 -263 -69 -369 -137 -217 -141 -360 -361 -406
-624 -50 -284 41 -582 239 -790 118 -125 238 -199 403 -250 78 -23 105 -27
233 -27 174 -1 238 13 387 85 237 114 412 329 485 594 31 114 31 355 0 467
-91 332 -336 576 -667 663 -59 16 -256 28 -305 19z"/>
</g>
</svg>
